<?xml version="1.0" encoding="UTF-8"?>
<svg xmlns="http://www.w3.org/2000/svg" width="1380" height="820" viewBox="0 0 1380 820">
<defs><marker id="arrow" markerWidth="10" markerHeight="8" refX="9" refY="4" orient="auto"><path d="M0,0 L10,4 L0,8 Z" fill="#64748b" opacity="0.75"/></marker><filter id="shadow" x="-10%" y="-10%" width="120%" height="120%"><feDropShadow dx="0" dy="3" stdDeviation="4" flood-color="#0f172a" flood-opacity="0.13"/></filter></defs><rect width="1380" height="820" fill="#f8fafc"/><text x="40" y="38" font-family="Inter, Segoe UI, Arial" font-size="26" font-weight="800" fill="#0f172a">RealEstate Platform ERD Overview</text><text x="40" y="60" font-family="Inter, Segoe UI, Arial" font-size="13" fill="#475569">34 MySQL tables grouped by module. Lines show main foreign-key relationships.</text><rect x="40" y="70" width="285" height="479" rx="14" fill="#ffffff" stroke="#cbd5e1" filter="url(#shadow)"/><rect x="40" y="70" width="285" height="34" rx="14" fill="#e0f2fe"/><rect x="40" y="90" width="285" height="14" fill="#e0f2fe"/><text x="56" y="93" font-family="Inter, Segoe UI, Arial" font-size="14" font-weight="800" fill="#0369a1">Identity &amp; Admin</text><rect x="370" y="70" width="310" height="436" rx="14" fill="#ffffff" stroke="#cbd5e1" filter="url(#shadow)"/><rect x="370" y="70" width="310" height="34" rx="14" fill="#dcfce7"/><rect x="370" y="90" width="310" height="14" fill="#dcfce7"/><text x="386" y="93" font-family="Inter, Segoe UI, Arial" font-size="14" font-weight="800" fill="#15803d">Property Catalog</text><rect x="725" y="70" width="285" height="221" rx="14" fill="#ffffff" stroke="#cbd5e1" filter="url(#shadow)"/><rect x="725" y="70" width="285" height="34" rx="14" fill="#fef3c7"/><rect x="725" y="90" width="285" height="14" fill="#fef3c7"/><text x="741" y="93" font-family="Inter, Segoe UI, Arial" font-size="14" font-weight="800" fill="#b45309">Marketplace Flow</text><rect x="1055" y="70" width="275" height="135" rx="14" fill="#ffffff" stroke="#cbd5e1" filter="url(#shadow)"/><rect x="1055" y="70" width="275" height="34" rx="14" fill="#fae8ff"/><rect x="1055" y="90" width="275" height="14" fill="#fae8ff"/><text x="1071" y="93" font-family="Inter, Segoe UI, Arial" font-size="14" font-weight="800" fill="#a21caf">Agencies &amp; Agents</text><rect x="725" y="430" width="285" height="135" rx="14" fill="#ffffff" stroke="#cbd5e1" filter="url(#shadow)"/><rect x="725" y="430" width="285" height="34" rx="14" fill="#ede9fe"/><rect x="725" y="450" width="285" height="14" fill="#ede9fe"/><text x="741" y="453" font-family="Inter, Segoe UI, Arial" font-size="14" font-weight="800" fill="#6d28d9">Messaging</text><rect x="1055" y="305" width="275" height="178" rx="14" fill="#ffffff" stroke="#cbd5e1" filter="url(#shadow)"/><rect x="1055" y="305" width="275" height="34" rx="14" fill="#fee2e2"/><rect x="1055" y="325" width="275" height="14" fill="#fee2e2"/><text x="1071" y="328" font-family="Inter, Segoe UI, Arial" font-size="14" font-weight="800" fill="#b91c1c">Billing</text><rect x="1055" y="525" width="275" height="221" rx="14" fill="#ffffff" stroke="#cbd5e1" filter="url(#shadow)"/><rect x="1055" y="525" width="275" height="34" rx="14" fill="#f1f5f9"/><rect x="1055" y="545" width="275" height="14" fill="#f1f5f9"/><text x="1071" y="548" font-family="Inter, Segoe UI, Arial" font-size="14" font-weight="800" fill="#475569">CMS</text><path d="M 182.5 148 C 182.5 148, 182.5 200, 182.5 200" fill="none" stroke="#64748b" stroke-width="1.2" opacity="0.42" marker-end="url(#arrow)"/><path d="M 182.5 191 C 182.5 191, 182.5 200, 182.5 200" fill="none" stroke="#64748b" stroke-width="1.2" opacity="0.42" marker-end="url(#arrow)"/><path d="M 182.5 191 C 182.5 191, 182.5 286, 182.5 286" fill="none" stroke="#64748b" stroke-width="1.2" opacity="0.42" marker-end="url(#arrow)"/><path d="M 182.5 277 C 182.5 277, 182.5 286, 182.5 286" fill="none" stroke="#64748b" stroke-width="1.2" opacity="0.42" marker-end="url(#arrow)"/><path d="M 182.5 148 C 182.5 148, 182.5 329, 182.5 329" fill="none" stroke="#64748b" stroke-width="1.2" opacity="0.42" marker-end="url(#arrow)"/><path d="M 182.5 148 C 182.5 148, 182.5 372, 182.5 372" fill="none" stroke="#64748b" stroke-width="1.2" opacity="0.42" marker-end="url(#arrow)"/><path d="M 182.5 148 C 182.5 148, 182.5 415, 182.5 415" fill="none" stroke="#64748b" stroke-width="1.2" opacity="0.42" marker-end="url(#arrow)"/><path d="M 182.5 148 C 182.5 148, 182.5 458, 182.5 458" fill="none" stroke="#64748b" stroke-width="1.2" opacity="0.42" marker-end="url(#arrow)"/><path d="M 182.5 148 C 182.5 148, 182.5 501, 182.5 501" fill="none" stroke="#64748b" stroke-width="1.2" opacity="0.42" marker-end="url(#arrow)"/><path d="M 525 157 C 525 157, 525 148, 525 148" fill="none" stroke="#64748b" stroke-width="1.2" opacity="0.42" marker-end="url(#arrow)"/><path d="M 525 200 C 525 200, 525 148, 525 148" fill="none" stroke="#64748b" stroke-width="1.2" opacity="0.42" marker-end="url(#arrow)"/><path d="M 525 277 C 525 277, 525 286, 525 286" fill="none" stroke="#64748b" stroke-width="1.2" opacity="0.42" marker-end="url(#arrow)"/><path d="M 525 286 C 525 286, 525 148, 525 148" fill="none" stroke="#64748b" stroke-width="1.2" opacity="0.42" marker-end="url(#arrow)"/><path d="M 307 131 C 347.5 131, 347.5 131, 388 131" fill="none" stroke="#64748b" stroke-width="1.2" opacity="0.42" marker-end="url(#arrow)"/><path d="M 525 148 C 525 148, 525 372, 525 372" fill="none" stroke="#64748b" stroke-width="1.2" opacity="0.42" marker-end="url(#arrow)"/><path d="M 525 363 C 525 363, 525 372, 525 372" fill="none" stroke="#64748b" stroke-width="1.2" opacity="0.42" marker-end="url(#arrow)"/><path d="M 525 148 C 525 148, 525 415, 525 415" fill="none" stroke="#64748b" stroke-width="1.2" opacity="0.42" marker-end="url(#arrow)"/><path d="M 307 518 C 347.5 518, 347.5 432, 388 432" fill="none" stroke="#64748b" stroke-width="1.2" opacity="0.42" marker-end="url(#arrow)"/><path d="M 525 148 C 525 148, 525 458, 525 458" fill="none" stroke="#64748b" stroke-width="1.2" opacity="0.42" marker-end="url(#arrow)"/><path d="M 307 131 C 347.5 131, 347.5 475, 388 475" fill="none" stroke="#64748b" stroke-width="1.2" opacity="0.42" marker-end="url(#arrow)"/><path d="M 307 131 C 690 131, 690 131, 1073 131" fill="none" stroke="#64748b" stroke-width="1.2" opacity="0.42" marker-end="url(#arrow)"/><path d="M 307 131 C 690 131, 690 174, 1073 174" fill="none" stroke="#64748b" stroke-width="1.2" opacity="0.42" marker-end="url(#arrow)"/><path d="M 1192.5 148 C 1192.5 148, 1192.5 157, 1192.5 157" fill="none" stroke="#64748b" stroke-width="1.2" opacity="0.42" marker-end="url(#arrow)"/><path d="M 1073 131 C 867.5 131, 867.5 131, 662 131" fill="none" stroke="#64748b" stroke-width="1.2" opacity="0.42" marker-end="url(#arrow)"/><path d="M 1073 174 C 867.5 174, 867.5 131, 662 131" fill="none" stroke="#64748b" stroke-width="1.2" opacity="0.42" marker-end="url(#arrow)"/><path d="M 662 131 C 702.5 131, 702.5 131, 743 131" fill="none" stroke="#64748b" stroke-width="1.2" opacity="0.42" marker-end="url(#arrow)"/><path d="M 307 131 C 525 131, 525 131, 743 131" fill="none" stroke="#64748b" stroke-width="1.2" opacity="0.42" marker-end="url(#arrow)"/><path d="M 662 131 C 702.5 131, 702.5 174, 743 174" fill="none" stroke="#64748b" stroke-width="1.2" opacity="0.42" marker-end="url(#arrow)"/><path d="M 307 131 C 525 131, 525 174, 743 174" fill="none" stroke="#64748b" stroke-width="1.2" opacity="0.42" marker-end="url(#arrow)"/><path d="M 867.5 191 C 867.5 191, 867.5 200, 867.5 200" fill="none" stroke="#64748b" stroke-width="1.2" opacity="0.42" marker-end="url(#arrow)"/><path d="M 662 131 C 702.5 131, 702.5 217, 743 217" fill="none" stroke="#64748b" stroke-width="1.2" opacity="0.42" marker-end="url(#arrow)"/><path d="M 307 131 C 525 131, 525 217, 743 217" fill="none" stroke="#64748b" stroke-width="1.2" opacity="0.42" marker-end="url(#arrow)"/><path d="M 867.5 234 C 867.5 234, 867.5 243, 867.5 243" fill="none" stroke="#64748b" stroke-width="1.2" opacity="0.42" marker-end="url(#arrow)"/><path d="M 662 131 C 702.5 131, 702.5 260, 743 260" fill="none" stroke="#64748b" stroke-width="1.2" opacity="0.42" marker-end="url(#arrow)"/><path d="M 307 131 C 525 131, 525 260, 743 260" fill="none" stroke="#64748b" stroke-width="1.2" opacity="0.42" marker-end="url(#arrow)"/><path d="M 662 131 C 702.5 131, 702.5 491, 743 491" fill="none" stroke="#64748b" stroke-width="1.2" opacity="0.42" marker-end="url(#arrow)"/><path d="M 307 131 C 525 131, 525 491, 743 491" fill="none" stroke="#64748b" stroke-width="1.2" opacity="0.42" marker-end="url(#arrow)"/><path d="M 867.5 508 C 867.5 508, 867.5 517, 867.5 517" fill="none" stroke="#64748b" stroke-width="1.2" opacity="0.42" marker-end="url(#arrow)"/><path d="M 307 131 C 525 131, 525 534, 743 534" fill="none" stroke="#64748b" stroke-width="1.2" opacity="0.42" marker-end="url(#arrow)"/><path d="M 662 131 C 702.5 131, 702.5 534, 743 534" fill="none" stroke="#64748b" stroke-width="1.2" opacity="0.42" marker-end="url(#arrow)"/><path d="M 1192.5 383 C 1192.5 383, 1192.5 392, 1192.5 392" fill="none" stroke="#64748b" stroke-width="1.2" opacity="0.42" marker-end="url(#arrow)"/><path d="M 307 131 C 690 131, 690 409, 1073 409" fill="none" stroke="#64748b" stroke-width="1.2" opacity="0.42" marker-end="url(#arrow)"/><path d="M 1192.5 426 C 1192.5 426, 1192.5 435, 1192.5 435" fill="none" stroke="#64748b" stroke-width="1.2" opacity="0.42" marker-end="url(#arrow)"/><path d="M 307 131 C 690 131, 690 452, 1073 452" fill="none" stroke="#64748b" stroke-width="1.2" opacity="0.42" marker-end="url(#arrow)"/><path d="M 1192.5 603 C 1192.5 603, 1192.5 612, 1192.5 612" fill="none" stroke="#64748b" stroke-width="1.2" opacity="0.42" marker-end="url(#arrow)"/><path d="M 1192.5 646 C 1192.5 646, 1192.5 655, 1192.5 655" fill="none" stroke="#64748b" stroke-width="1.2" opacity="0.42" marker-end="url(#arrow)"/><path d="M 1192.5 689 C 1192.5 689, 1192.5 698, 1192.5 698" fill="none" stroke="#64748b" stroke-width="1.2" opacity="0.42" marker-end="url(#arrow)"/><rect x="58" y="114" width="249" height="34" rx="8" fill="#e0f2fe" stroke="#0369a1" stroke-opacity="0.35"/><text x="70" y="136" font-family="Inter, Segoe UI, Arial" font-size="13" font-weight="700" fill="#0f172a">users</text><rect x="58" y="157" width="249" height="34" rx="8" fill="#e0f2fe" stroke="#0369a1" stroke-opacity="0.35"/><text x="70" y="179" font-family="Inter, Segoe UI, Arial" font-size="13" font-weight="700" fill="#0f172a">roles</text><rect x="58" y="200" width="249" height="34" rx="8" fill="#e0f2fe" stroke="#0369a1" stroke-opacity="0.35"/><text x="70" y="222" font-family="Inter, Segoe UI, Arial" font-size="13" font-weight="700" fill="#0f172a">user_roles</text><rect x="58" y="243" width="249" height="34" rx="8" fill="#e0f2fe" stroke="#0369a1" stroke-opacity="0.35"/><text x="70" y="265" font-family="Inter, Segoe UI, Arial" font-size="13" font-weight="700" fill="#0f172a">permissions</text><rect x="58" y="286" width="249" height="34" rx="8" fill="#e0f2fe" stroke="#0369a1" stroke-opacity="0.35"/><text x="70" y="308" font-family="Inter, Segoe UI, Arial" font-size="13" font-weight="700" fill="#0f172a">role_permissions</text><rect x="58" y="329" width="249" height="34" rx="8" fill="#e0f2fe" stroke="#0369a1" stroke-opacity="0.35"/><text x="70" y="351" font-family="Inter, Segoe UI, Arial" font-size="13" font-weight="700" fill="#0f172a">refresh_tokens</text><rect x="58" y="372" width="249" height="34" rx="8" fill="#e0f2fe" stroke="#0369a1" stroke-opacity="0.35"/><text x="70" y="394" font-family="Inter, Segoe UI, Arial" font-size="13" font-weight="700" fill="#0f172a">audit_logs</text><rect x="58" y="415" width="249" height="34" rx="8" fill="#e0f2fe" stroke="#0369a1" stroke-opacity="0.35"/><text x="70" y="437" font-family="Inter, Segoe UI, Arial" font-size="13" font-weight="700" fill="#0f172a">notifications</text><rect x="58" y="458" width="249" height="34" rx="8" fill="#e0f2fe" stroke="#0369a1" stroke-opacity="0.35"/><text x="70" y="480" font-family="Inter, Segoe UI, Arial" font-size="13" font-weight="700" fill="#0f172a">settings</text><rect x="58" y="501" width="249" height="34" rx="8" fill="#e0f2fe" stroke="#0369a1" stroke-opacity="0.35"/><text x="70" y="523" font-family="Inter, Segoe UI, Arial" font-size="13" font-weight="700" fill="#0f172a">files</text><rect x="388" y="114" width="274" height="34" rx="8" fill="#dcfce7" stroke="#15803d" stroke-opacity="0.35"/><text x="400" y="136" font-family="Inter, Segoe UI, Arial" font-size="13" font-weight="700" fill="#0f172a">properties</text><rect x="388" y="157" width="274" height="34" rx="8" fill="#dcfce7" stroke="#15803d" stroke-opacity="0.35"/><text x="400" y="179" font-family="Inter, Segoe UI, Arial" font-size="13" font-weight="700" fill="#0f172a">property_types</text><rect x="388" y="200" width="274" height="34" rx="8" fill="#dcfce7" stroke="#15803d" stroke-opacity="0.35"/><text x="400" y="222" font-family="Inter, Segoe UI, Arial" font-size="13" font-weight="700" fill="#0f172a">categories</text><rect x="388" y="243" width="274" height="34" rx="8" fill="#dcfce7" stroke="#15803d" stroke-opacity="0.35"/><text x="400" y="265" font-family="Inter, Segoe UI, Arial" font-size="13" font-weight="700" fill="#0f172a">cities</text><rect x="388" y="286" width="274" height="34" rx="8" fill="#dcfce7" stroke="#15803d" stroke-opacity="0.35"/><text x="400" y="308" font-family="Inter, Segoe UI, Arial" font-size="13" font-weight="700" fill="#0f172a">locations</text><rect x="388" y="329" width="274" height="34" rx="8" fill="#dcfce7" stroke="#15803d" stroke-opacity="0.35"/><text x="400" y="351" font-family="Inter, Segoe UI, Arial" font-size="13" font-weight="700" fill="#0f172a">amenities</text><rect x="388" y="372" width="274" height="34" rx="8" fill="#dcfce7" stroke="#15803d" stroke-opacity="0.35"/><text x="400" y="394" font-family="Inter, Segoe UI, Arial" font-size="13" font-weight="700" fill="#0f172a">property_amenities</text><rect x="388" y="415" width="274" height="34" rx="8" fill="#dcfce7" stroke="#15803d" stroke-opacity="0.35"/><text x="400" y="437" font-family="Inter, Segoe UI, Arial" font-size="13" font-weight="700" fill="#0f172a">property_images</text><rect x="388" y="458" width="274" height="34" rx="8" fill="#dcfce7" stroke="#15803d" stroke-opacity="0.35"/><text x="400" y="480" font-family="Inter, Segoe UI, Arial" font-size="13" font-weight="700" fill="#0f172a">favorites</text><rect x="743" y="114" width="249" height="34" rx="8" fill="#fef3c7" stroke="#b45309" stroke-opacity="0.35"/><text x="755" y="136" font-family="Inter, Segoe UI, Arial" font-size="13" font-weight="700" fill="#0f172a">viewings</text><rect x="743" y="157" width="249" height="34" rx="8" fill="#fef3c7" stroke="#b45309" stroke-opacity="0.35"/><text x="755" y="179" font-family="Inter, Segoe UI, Arial" font-size="13" font-weight="700" fill="#0f172a">offers</text><rect x="743" y="200" width="249" height="34" rx="8" fill="#fef3c7" stroke="#b45309" stroke-opacity="0.35"/><text x="755" y="222" font-family="Inter, Segoe UI, Arial" font-size="13" font-weight="700" fill="#0f172a">transactions</text><rect x="743" y="243" width="249" height="34" rx="8" fill="#fef3c7" stroke="#b45309" stroke-opacity="0.35"/><text x="755" y="265" font-family="Inter, Segoe UI, Arial" font-size="13" font-weight="700" fill="#0f172a">reviews</text><rect x="1073" y="114" width="239" height="34" rx="8" fill="#fae8ff" stroke="#a21caf" stroke-opacity="0.35"/><text x="1085" y="136" font-family="Inter, Segoe UI, Arial" font-size="13" font-weight="700" fill="#0f172a">agencies</text><rect x="1073" y="157" width="239" height="34" rx="8" fill="#fae8ff" stroke="#a21caf" stroke-opacity="0.35"/><text x="1085" y="179" font-family="Inter, Segoe UI, Arial" font-size="13" font-weight="700" fill="#0f172a">agents</text><rect x="743" y="474" width="249" height="34" rx="8" fill="#ede9fe" stroke="#6d28d9" stroke-opacity="0.35"/><text x="755" y="496" font-family="Inter, Segoe UI, Arial" font-size="13" font-weight="700" fill="#0f172a">message_threads</text><rect x="743" y="517" width="249" height="34" rx="8" fill="#ede9fe" stroke="#6d28d9" stroke-opacity="0.35"/><text x="755" y="539" font-family="Inter, Segoe UI, Arial" font-size="13" font-weight="700" fill="#0f172a">messages</text><rect x="1073" y="349" width="239" height="34" rx="8" fill="#fee2e2" stroke="#b91c1c" stroke-opacity="0.35"/><text x="1085" y="371" font-family="Inter, Segoe UI, Arial" font-size="13" font-weight="700" fill="#0f172a">plans</text><rect x="1073" y="392" width="239" height="34" rx="8" fill="#fee2e2" stroke="#b91c1c" stroke-opacity="0.35"/><text x="1085" y="414" font-family="Inter, Segoe UI, Arial" font-size="13" font-weight="700" fill="#0f172a">subscriptions</text><rect x="1073" y="435" width="239" height="34" rx="8" fill="#fee2e2" stroke="#b91c1c" stroke-opacity="0.35"/><text x="1085" y="457" font-family="Inter, Segoe UI, Arial" font-size="13" font-weight="700" fill="#0f172a">payments</text><rect x="1073" y="569" width="239" height="34" rx="8" fill="#f1f5f9" stroke="#475569" stroke-opacity="0.35"/><text x="1085" y="591" font-family="Inter, Segoe UI, Arial" font-size="13" font-weight="700" fill="#0f172a">cms_pages</text><rect x="1073" y="612" width="239" height="34" rx="8" fill="#f1f5f9" stroke="#475569" stroke-opacity="0.35"/><text x="1085" y="634" font-family="Inter, Segoe UI, Arial" font-size="13" font-weight="700" fill="#0f172a">cms_sections</text><rect x="1073" y="655" width="239" height="34" rx="8" fill="#f1f5f9" stroke="#475569" stroke-opacity="0.35"/><text x="1085" y="677" font-family="Inter, Segoe UI, Arial" font-size="13" font-weight="700" fill="#0f172a">cms_blocks</text><rect x="1073" y="698" width="239" height="34" rx="8" fill="#f1f5f9" stroke="#475569" stroke-opacity="0.35"/><text x="1085" y="720" font-family="Inter, Segoe UI, Arial" font-size="13" font-weight="700" fill="#0f172a">cms_block_versions</text><g font-family="Inter, Segoe UI, Arial" font-size="12" fill="#334155"><rect x="40" y="770" width="18" height="10" rx="3" fill="#dcfce7" stroke="#15803d" stroke-opacity="0.35"/><text x="66" y="779">Property domain</text><rect x="190" y="770" width="18" height="10" rx="3" fill="#e0f2fe" stroke="#0369a1" stroke-opacity="0.35"/><text x="216" y="779">Security/admin</text><path d="M345 775 L405 775" stroke="#64748b" stroke-width="1.2" opacity="0.55" marker-end="url(#arrow)"/><text x="415" y="779">Foreign key direction</text></g></svg>
